<?xml version="1.0" encoding="UTF-8" standalone="no"?><!DOCTYPE svg PUBLIC "-//W3C//DTD SVG 1.1//EN" "http://www.w3.org/Graphics/SVG/1.1/DTD/svg11.dtd"><svg width="100%" height="100%" viewBox="0 0 72 72" version="1.1" xmlns="http://www.w3.org/2000/svg" xmlns:xlink="http://www.w3.org/1999/xlink" xml:space="preserve" xmlns:serif="http://www.serif.com/" style="fill-rule:evenodd;clip-rule:evenodd;stroke-linecap:round;stroke-linejoin:round;"><path d="M69,19.5c0,-9.107 -7.393,-16.5 -16.5,-16.5l-33,0c-9.107,0 -16.5,7.393 -16.5,16.5l0,33c0,9.107 7.393,16.5 16.5,16.5l33,0c9.107,0 16.5,-7.393 16.5,-16.5l0,-33Z" style="fill:#3b8dbd;"/><clipPath id="_clip1"><path d="M69,19.5c0,-9.107 -7.393,-16.5 -16.5,-16.5l-33,0c-9.107,0 -16.5,7.393 -16.5,16.5l0,33c0,9.107 7.393,16.5 16.5,16.5l33,0c9.107,0 16.5,-7.393 16.5,-16.5l0,-33Z"/></clipPath><g clip-path="url(#_clip1)"><g id="Ebene-1" serif:id="Ebene 1"><path id="rect10346" d="M71.5,7.303c0,-2.927 -2.376,-5.303 -5.303,-5.303l-59.394,0c-2.927,0 -5.303,2.376 -5.303,5.303l0,56.894c0,2.927 2.376,5.303 5.303,5.303l59.394,0c2.927,0 5.303,-2.376 5.303,-5.303l0,-56.894Z" style="fill:#13161b;"/><text x="6.306px" y="52.478px" style="font-family:'FiraSans-SemiBold', 'Fira Sans', sans-serif;font-weight:600;font-size:47.625px;fill:#fff;">R</text><path id="path2257" d="M9.783,48.665c18.335,16.096 31.343,15.748 44.489,-24.248" style="fill:none;stroke:#3b8dbd;stroke-width:6.3px;"/><path d="M56.369,12.543l5.993,23.457l-22.911,-6.139l16.918,-17.318Z" style="fill:#3b8dbd;stroke:#3b8dbd;stroke-width:1.59px;stroke-miterlimit:1.5;"/><text x="32.523px" y="52.478px" style="font-family:'FiraSans-SemiBold', 'Fira Sans', sans-serif;font-weight:600;font-size:47.625px;fill:#fff;">B</text></g></g></svg>